<?xml version="1.0" encoding="utf-8"?>
<!-- Generator: Adobe Illustrator 26.0.0, SVG Export Plug-In . SVG Version: 6.00 Build 0)  -->
<svg version="1.1" id="Layer_1" xmlns="http://www.w3.org/2000/svg" xmlns:xlink="http://www.w3.org/1999/xlink" x="0px" y="0px"
	 viewBox="0 0 600 600" style="enable-background:new 0 0 600 600;" xml:space="preserve">
<style type="text/css">
	.st0{fill:url(#SVGID_1_);}
	.st1{fill:url(#SVGID_00000037679704051091083950000006715168636197592243_);}
	.st2{fill:url(#SVGID_00000085960762042604034560000014915065947227471779_);}
</style>
<linearGradient id="SVGID_1_" gradientUnits="userSpaceOnUse" x1="137.581" y1="490.2184" x2="137.581" y2="130.0515">
	<stop  offset="0" style="stop-color:#FFFFFF;stop-opacity:0"/>
	<stop  offset="7.380245e-03" style="stop-color:#F4F4F5;stop-opacity:7.380247e-03"/>
	<stop  offset="0.0477" style="stop-color:#CECFD1;stop-opacity:0.0477"/>
	<stop  offset="0.0931" style="stop-color:#AAACAF;stop-opacity:0.0931"/>
	<stop  offset="0.1419" style="stop-color:#8D8F92;stop-opacity:0.1419"/>
	<stop  offset="0.195" style="stop-color:#757679;stop-opacity:0.195"/>
	<stop  offset="0.2537" style="stop-color:#5F6063;stop-opacity:0.2537"/>
	<stop  offset="0.32" style="stop-color:#4C4C4E;stop-opacity:0.32"/>
	<stop  offset="0.3974" style="stop-color:#38383A;stop-opacity:0.3974"/>
	<stop  offset="0.4931" style="stop-color:#1E1E1F;stop-opacity:0.4931"/>
	<stop  offset="0.6274" style="stop-color:#070708;stop-opacity:0.6274"/>
	<stop  offset="1" style="stop-color:#000000"/>
</linearGradient>
<path class="st0" d="M266.82,185.22c-9.47,9.21-36.19,36.02-36.19,36.02s-31.09-28.32-65.14-33.12
	c-54.9-7.74-88.12,36.19-94.96,77.08c-4.4,26.45-3.2,54.14,3.24,79.89c10.44,41.59,37.29,66.98,72.55,72.98
	c0.07,0,0.2,0.03,0.33,0.07c-0.73,11.77-0.63,24.45,0.93,37.32c0.1,1.17,0.27,2.3,0.43,3.47c0.17,1.17,0.33,2.3,0.5,3.47
	c0.37,2.33,0.77,4.67,1.23,6.97c0.63,3.1,1.33,6.2,2.2,9.31c1.03,3.87,2.27,7.74,3.67,11.54c-0.8-0.13-1.57-0.23-2.27-0.37
	c-95.96-24.68-145-87.06-145-187.79c0-110.97,62.56-169.48,129.23-171.88C178.87,128.68,226.79,139.66,266.82,185.22z"/>
<linearGradient id="SVGID_00000111911956495101801570000009620481587400420776_" gradientUnits="userSpaceOnUse" x1="369.0736" y1="588" x2="369.0736" y2="128.6872">
	<stop  offset="0" style="stop-color:#FFFFFF;stop-opacity:0"/>
	<stop  offset="7.380246e-03" style="stop-color:#F4F4F5;stop-opacity:7.380247e-03"/>
	<stop  offset="0.0477" style="stop-color:#CECFD1;stop-opacity:0.0477"/>
	<stop  offset="0.0931" style="stop-color:#AAACAF;stop-opacity:0.0931"/>
	<stop  offset="0.1419" style="stop-color:#8D8F92;stop-opacity:0.1419"/>
	<stop  offset="0.195" style="stop-color:#757679;stop-opacity:0.195"/>
	<stop  offset="0.2537" style="stop-color:#5F6063;stop-opacity:0.2537"/>
	<stop  offset="0.32" style="stop-color:#4C4C4E;stop-opacity:0.32"/>
	<stop  offset="0.3974" style="stop-color:#38383A;stop-opacity:0.3974"/>
	<stop  offset="0.4931" style="stop-color:#1E1E1F;stop-opacity:0.4931"/>
	<stop  offset="0.6274" style="stop-color:#070708;stop-opacity:0.6274"/>
	<stop  offset="1" style="stop-color:#000000"/>
</linearGradient>
<path style="fill:url(#SVGID_00000111911956495101801570000009620481587400420776_);" d="M582.69,248.66
	c-30.89-109.3-146.26-153.97-225.61-91.49c-16.54,15.38-33.09,30.79-49.63,46.16c-16.81,16.78-33.62,33.52-50.43,50.27
	c-22.85,23.32-46,46.33-68.38,70.08c-19.31,20.48-27.72,41.03-33.79,54.77c-7.04,15.98-8.11,37.92-8.11,37.92
	c-0.03,0.6-0.07,1.17-0.1,1.77c0.13,0.03,0.27,0.07,0.47,0.1c-0.83,12.01-0.93,24.52,0.47,37.22c0.13,1.17,0.27,2.3,0.43,3.47
	c0.17,1.17,0.33,2.3,0.5,3.47c0.37,2.33,0.77,4.67,1.23,6.97c0.63,3.1,1.37,6.2,2.2,9.31c1.03,3.87,2.27,7.74,3.67,11.54
	c0,0.07,0.03,0.17,0.07,0.23c7.67,31.92,35.86,62.71,62.24,76.85c33.12,17.78,71.38,23.98,110.54,19.08
	c57.97-7.3,114.01-54.87,123.08-107.24c53.64-4.04,84.26-37.66,108-70.55C595,359.43,598.47,304.53,582.69,248.66z M450.4,418.04
	c0.43-36.62-0.07-134.82-0.07-134.82L399,282.58c0,0-0.57,119.61-2.07,160.67c-1.33,36.82-29.29,69.81-66.34,80.65
	c-36.02,10.54-70.61-0.8-92.73-31.09c-2.4-3.3-4.57-6.64-6.54-9.97c-25.38-43.36-14.24-90.39,12.14-116.51
	c52.8-52.2,124.18-121.91,155.5-153.2c20.25-20.28,57.74-25.15,82.32-5.34c32.65,26.32,47.53,60.17,46.23,102.87
	C529.49,354.46,497.2,416.67,450.4,418.04z"/>
<linearGradient id="SVGID_00000053510450809013997460000005410723991126569871_" gradientUnits="userSpaceOnUse" x1="255.4311" y1="182.3094" x2="348.0231" y2="21.9354">
	<stop  offset="6.846893e-08" style="stop-color:#FFFFFF;stop-opacity:0"/>
	<stop  offset="7.380314e-03" style="stop-color:#F4F4F5;stop-opacity:7.380247e-03"/>
	<stop  offset="0.0477" style="stop-color:#CECFD1;stop-opacity:0.0477"/>
	<stop  offset="0.0931" style="stop-color:#AAACAF;stop-opacity:0.0931"/>
	<stop  offset="0.1419" style="stop-color:#8D8F92;stop-opacity:0.1419"/>
	<stop  offset="0.195" style="stop-color:#757679;stop-opacity:0.195"/>
	<stop  offset="0.2537" style="stop-color:#5F6063;stop-opacity:0.2537"/>
	<stop  offset="0.32" style="stop-color:#4C4C4E;stop-opacity:0.32"/>
	<stop  offset="0.3974" style="stop-color:#38383A;stop-opacity:0.3974"/>
	<stop  offset="0.4931" style="stop-color:#1E1E1F;stop-opacity:0.4931"/>
	<stop  offset="0.6274" style="stop-color:#070708;stop-opacity:0.6274"/>
	<stop  offset="1" style="stop-color:#000000"/>
</linearGradient>
<path style="fill:url(#SVGID_00000053510450809013997460000005410723991126569871_);" d="M440.91,119.28
	c-22.71-0.13-38.02,3.7-57.4,10.91c-24.28-42.96-54.37-50.83-89.93-50.23c-35.56-0.6-65.64,7.27-89.93,50.23
	c-19.38-7.2-34.69-11.04-57.4-10.91c17.44-48.4,48.7-80.65,97.46-94.56c16.34-4.67,33.09-4.97,49.87-5
	c16.78,0.03,33.52,0.33,49.87,5C392.21,38.62,423.47,70.88,440.91,119.28z"/>
</svg>
