<?xml version="1.0" encoding="utf-8"?>
<!-- Generator: Adobe Illustrator 26.0.0, SVG Export Plug-In . SVG Version: 6.00 Build 0)  -->
<svg version="1.1" id="Layer_1" xmlns="http://www.w3.org/2000/svg" xmlns:xlink="http://www.w3.org/1999/xlink" x="0px" y="0px"
	 viewBox="0 0 600 600" style="enable-background:new 0 0 600 600;" xml:space="preserve">
<g>
	<path d="M437.08,520.34c-18.53,10.38-38.51,15.03-60.84,14.64c-18.57,0.37-37.52-2.75-54.65-12.92
		c-16.11-9.57-30.95-6.25-46.9,1.33c-35.78,16.98-72.43,16.75-107.79-0.86c-44.53-22.15-56.89-71.32-28.52-114.11
		c8.47-12.8,20.35-23.91,32.4-33.64c15.5-12.55,29.08-26.15,38.56-43.82c9.22-17.13,19.88-33.11,36.58-44.26
		c48.61-32.4,111.85-16.01,138.32,36.07c3.17,6.23,5.75,12.79,9.23,18.84c8.17,14.2,20.18,24.5,34,33.07
		c24.38,15.18,41.21,36.24,47.07,64.75C481.47,473.25,467.24,503.46,437.08,520.34z"/>
	<path d="M282.13,160.34c-0.17,26.6-2.36,52.65-17.81,75.68c-9.97,14.88-22.39,26.82-40.35,30.8c-24.77,5.48-44.06-4.68-58.66-23.87
		c-28.71-37.67-28.05-86.61,1.1-127.4c13.36-18.67,29.05-34.92,50-45.12c5.46-2.66,11.49-4.72,17.47-5.58
		c15.3-2.19,26.59,4.2,34,17.72c8.27,15.08,10.82,31.67,12.57,48.39C281.48,140.7,281.61,150.54,282.13,160.34z"/>
	<path d="M434.74,241.72c-26.06,36.15-69.41,35.36-96.15-0.56c-13.53-18.14-19.53-38.9-20.67-61.22
		c-0.29-5.88-0.03-11.78-0.03-17.67c-0.77-0.1-1.55-0.19-2.31-0.29c2.9-20.47,5.71-40.96,8.79-61.41c0.54-3.54,2.09-6.96,3.45-10.31
		c9.92-24.53,28.15-32.41,52.03-21.18c32.48,15.28,54.4,41.21,67.78,73.88C461.95,177.92,456.44,211.59,434.74,241.72z"/>
	<path d="M552.3,288.72c-0.77,37.7-15.45,66.08-45.77,85.06c-31.18,19.53-65.69,6.47-77.85-28.34c-5.64-16.09-6.27-32.43-1.74-48.77
		c8.66-31.27,24.14-58.88,45.94-82.92c2.59-2.88,5.78-5.31,8.95-7.6c15.62-11.24,31.52-9.69,44.22,4.65
		c14.66,16.56,20.6,36.93,24.18,58.12C551.44,276.09,551.76,283.4,552.3,288.72z"/>
	<path d="M165.8,356.74c-13.16,23.05-38.4,32.48-62.76,21.78c-33.73-14.84-50.96-42.29-55.16-78.37c-0.39-3.32-0.05-6.72-0.05-10.09
		c0.71-27.65,6.17-53.98,23.3-76.52c13.48-17.72,32.21-20.2,48.81-5.24c10.04,9.06,19.04,19.88,26.32,31.3
		c14.46,22.71,27.44,46.35,28.93,74.28C175.99,329.04,173.37,343.49,165.8,356.74z"/>
</g>
</svg>
